<svg width="926" height="925" viewBox="0 0 926 925" fill="none" xmlns="http://www.w3.org/2000/svg">
<path d="M33.1849 541.813L33.1836 891.541L892.634 891.541V541.812" stroke="black" stroke-width="65" stroke-linecap="round"/>
<path d="M504 41C504 18.3563 485.644 9.89787e-07 463 0C440.356 -9.89787e-07 422 18.3563 422 41L504 41ZM434.009 670.991C450.02 687.003 475.98 687.003 491.991 670.991L752.914 410.069C768.925 394.057 768.925 368.098 752.914 352.086C736.902 336.075 710.943 336.075 694.931 352.086L463 584.017L231.069 352.086C215.057 336.075 189.098 336.075 173.086 352.086C157.075 368.098 157.075 394.057 173.086 410.069L434.009 670.991ZM422 41L422 642L504 642L504 41L422 41Z" fill="#55CCFF"/>
</svg>
