<svg width="265" height="232" viewBox="0 0 265 232" fill="none" xmlns="http://www.w3.org/2000/svg">
<path d="M7 224.872C59.5 -182.128 215.5 111.377 71.5 82.8706" stroke="#55CCFF" stroke-width="13.5109" stroke-linecap="round"/>
<path d="M260.434 55C248.935 237.243 207.888 231.856 185 219.791" stroke="#55CCFF" stroke-width="7.64013" stroke-linecap="round"/>
<path d="M222.528 17.4727C206.154 102.577 227.494 97.3764 236.39 87.4476" stroke="black" stroke-width="7.64133" stroke-linecap="round"/>
<path d="M159.722 69.5566C213.466 67.9291 196.909 19.1018 166.344 44.9102" stroke="black" stroke-width="7.64133"/>
<path d="M199.903 85.7555C201.787 84.8053 202.544 82.5077 201.594 80.6237C200.644 78.7396 198.346 77.9826 196.462 78.9328L199.903 85.7555ZM196.462 78.9328C185.32 84.5521 176.685 86.208 170.473 85.6073C164.382 85.0183 160.583 82.2839 158.548 78.7302C154.349 71.4011 156.652 58.1649 168.819 47.821L163.869 41.9993C150.055 53.7437 145.227 70.85 151.917 82.5286C155.326 88.4787 161.477 92.4144 169.737 93.2132C177.877 94.0002 187.994 91.7616 199.903 85.7555L196.462 78.9328Z" fill="black"/>
</svg>
